# xmcd
#
# Track frame offsets:
#	150
#	15820
#	30576
#
# Disc length: 614 seconds
#
# Revision: 4
# Processed by: cddbd v1.5.2PL0 Copyright (c) Steve Scherf et al.
# Submitted via: EasyCDDAExtractor 16.0.8.1
#
DISCID=10026403
DTITLE=West Coast Blues - Promo
DYEAR=2010
DGENRE=Blues
TTITLE0=I Still Love You Baby
TTITLE1=One Way Out
TTITLE2=I'll Get My Heaven On My Own
EXTD=
EXTT0=
EXTT1=
EXTT2=
PLAYORDER=
